<svg width="35" height="30" viewBox="0 0 35 30" fill="none" xmlns="http://www.w3.org/2000/svg">
<g filter="url(#filter0_d_85_1095)">
<path d="M24.2969 7H1.70306C0.762459 7 0 7.76246 0 8.70306V23.0087C0 23.9493 0.762515 24.7118 1.70306 24.7118H9.20218L11.6967 27.6775C12.0203 28.0623 12.4973 28.2844 13.0001 28.2844C13.5028 28.2844 13.9798 28.0623 14.3034 27.6775L16.7979 24.7118H24.2969C25.2375 24.7118 26 23.9493 26 23.0087V8.70306C26 7.76246 25.2375 7 24.2969 7ZM18.3882 20.6245H4.7035C4.23323 20.6245 3.85197 20.2432 3.85197 19.7729C3.85197 19.3027 4.23323 18.9214 4.7035 18.9214H18.3882C18.8585 18.9214 19.2398 19.3027 19.2398 19.7729C19.2398 20.2432 18.8585 20.6245 18.3882 20.6245ZM3.85197 15.9252C3.85197 15.4549 4.23323 15.0737 4.7035 15.0737H15.2115C15.6818 15.0737 16.0631 15.4549 16.0631 15.9252C16.0631 16.3955 15.6818 16.7767 15.2115 16.7767H4.7035C4.23323 16.7767 3.85197 16.3955 3.85197 15.9252ZM21.2965 12.9289H4.7035C4.23323 12.9289 3.85197 12.5476 3.85197 12.0774C3.85197 11.6071 4.23323 11.2259 4.7035 11.2259H21.2964C21.7667 11.2259 22.148 11.6071 22.148 12.0774C22.148 12.5476 21.7668 12.9289 21.2965 12.9289Z" fill="white"/>
</g>
<g clip-path="url(#clip0_85_1095)">
<rect x="17" width="18" height="18" rx="9" fill="#FF464B"/>
<path d="M25.9634 12.591V6.25828H24.5594V5.27646H27.1122V12.591H25.9634Z" fill="white"/>
</g>
<defs>
<filter id="filter0_d_85_1095" x="0" y="7" width="26" height="22.2844" filterUnits="userSpaceOnUse" color-interpolation-filters="sRGB">
<feFlood flood-opacity="0" result="BackgroundImageFix"/>
<feColorMatrix in="SourceAlpha" type="matrix" values="0 0 0 0 0 0 0 0 0 0 0 0 0 0 0 0 0 0 127 0" result="hardAlpha"/>
<feOffset dy="1"/>
<feComposite in2="hardAlpha" operator="out"/>
<feColorMatrix type="matrix" values="0 0 0 0 0 0 0 0 0 0 0 0 0 0 0 0 0 0 0.11 0"/>
<feBlend mode="normal" in2="BackgroundImageFix" result="effect1_dropShadow_85_1095"/>
<feBlend mode="normal" in="SourceGraphic" in2="effect1_dropShadow_85_1095" result="shape"/>
</filter>
<clipPath id="clip0_85_1095">
<rect x="17" width="18" height="18" rx="9" fill="white"/>
</clipPath>
</defs>
</svg>
