<svg width="200" height="160" viewBox="0 0 200 160" fill="none" xmlns="http://www.w3.org/2000/svg">
<g clip-path="url(#clip0_87_6)">
<path d="M38.8998 86.1002C38.7998 84.6002 39.6998 83.5002 40.6998 82.4002C46.5998 76.5002 52.4998 70.6002 58.3998 64.8002C59.6998 63.5002 59.6998 62.8002 58.3998 61.5002C52.2998 55.6002 46.2998 49.6002 40.3998 43.6002C37.5998 40.7002 38.5998 36.5002 42.2998 35.6002C43.8998 35.2002 45.3998 35.6002 46.4998 36.8002C54.1998 44.5002 61.8998 52.1002 69.5998 59.9002C71.4998 61.8002 71.4998 64.6002 69.5998 66.6002C61.9998 74.2002 54.2998 81.9002 46.5998 89.5002C45.0998 91.0002 43.1998 91.3002 41.2998 90.3002C39.5998 89.5002 38.7998 88.1002 38.8998 86.1002Z" fill="white"/>
<path d="M98.8 63.3003C98.8 64.7003 98.2 65.8003 97.2 66.8003C89.7 74.3003 82.2 81.9003 74.6 89.3003C72.5 91.4003 69.7 91.4003 67.8 89.5003C66 87.7003 66.1 84.7003 68.2 82.7003C74.2 76.6003 80.3 70.6003 86.4 64.6003C87.5 63.5003 87.6 62.9003 86.4 61.7003C80.3 55.7003 74.2 49.7003 68.2 43.6003C65.3 40.7003 66.3 36.5003 69.9 35.5003C71.6 35.0003 73.1 35.5003 74.3 36.8003C82 44.4003 89.6 52.0003 97.2 59.7003C98.3 60.7003 98.8 61.9003 98.8 63.3003Z" fill="white"/>
<path d="M190.7 114.9C190.4 114.9 190.2 114.6 189.6 114.2C189.6 102.1 189.5 89.8001 189.6 77.5001C189.6 72.2001 187.9 67.7001 184.2 64.0001C174.6 54.5001 165.4 44.6001 155.4 35.6001C152.1 32.6001 147 31.3001 142.5 30.3001C138.6 29.4001 134.3 30.1001 129.7 30.1001C129.7 26.6001 129.8 23.6001 129.7 20.7001C129.4 8.90008 121.3 0.300081 109.6 0.200081C79.6001 8.12858e-05 49.8001 -0.0999187 20.0001 0.200081C8.90008 0.200081 0.300081 8.50008 0.200081 19.4001C-0.0999187 49.9001 8.12858e-05 80.4001 0.200081 110.9C0.300081 120 6.40008 126.9 15.2001 129.3C16.8001 129.7 18.3001 130.1 19.8001 130.5C22.2001 152.1 36.7001 159.3 48.6001 160C55.2001 160.4 61.5001 158.5 67.0001 154.6C75.3001 148.7 79.2001 140.3 79.9001 130.5C93.6001 130.5 106.8 130.5 119.9 130.5C122.6 148.5 132.6 159.3 148.3 159.7C154.3 159.8 160.9 157.8 166.2 154.8C175.4 149.7 179.2 140.5 179.9 130C183.5 130 186.7 130 189.8 130C196 129.9 199.2 127.6 199.5 123C199.8 118.5 197.1 116 190.7 114.9ZM49.8001 145.1C41.3001 145.1 34.5001 138.3 34.7001 129.9C34.8001 121.5 41.6001 115 50.2001 115.1C58.5001 115.2 65.0001 121.8 65.1001 130C65.1001 138.4 58.3001 145.1 49.8001 145.1ZM115 108C115 113.7 113.6 115 107.9 115C98.4001 115 88.9001 115.2 79.4001 114.9C77.5001 114.8 75.0001 113.7 73.8001 112.1C60.8001 95.8001 38.7001 95.8001 25.9001 112.5C23.5001 115.6 20.6001 115.7 18.1001 114.5C16.4001 113.7 14.8001 110.7 14.7001 108.7C14.5001 79.6001 14.6001 50.4001 14.5001 21.3001C14.5001 17.0001 16.5001 15.0001 20.9001 15.0001C24.6001 15.0001 28.2001 15.0001 31.9001 15.0001C42.9001 15.0001 53.9001 15.0001 64.9001 15.0001C79.2001 15.0001 93.5001 15.0001 107.9 15.0001C113.6 15.0001 115 16.4001 115 22.0001C115.1 50.8001 115.1 79.4001 115 108ZM165 130.3C164.9 134 163.6 137.3 161.4 139.9C160.8 140.6 160.1 141.3 159.3 141.9C157.4 143.4 155.1 144.4 152.6 144.9C151.6 145.1 150.5 145.2 149.5 145.1C141.2 144.9 134.7 138.3 134.7 130.1C134.7 125.9 136.4 122.1 139.2 119.4C139.6 119 140.1 118.6 140.6 118.2C143.2 116.2 146.5 115.1 150.1 115.1C153 115.1 155.6 115.9 157.9 117.3C162.2 119.9 165.1 124.7 165 130.3ZM129.8 74.8001C129.8 64.9001 129.8 55.3001 129.8 45.4001C131.8 45.2001 133.8 45.0001 135.7 45.0001C136.7 45.0001 137.6 45.0001 138.5 45.1001C141.7 45.3001 144.8 46.1001 147.7 48.2001C148.5 48.8001 149.3 49.5001 150.1 50.3001C150.5 50.7001 150.9 51.2001 151.3 51.6001C152.1 52.6001 153 53.6001 153.9 54.6001C155.6 56.6001 157.5 58.5001 159.4 60.4001C162.2 63.2001 165.1 66.0001 168.1 68.8001C168.2 68.9001 168.3 69.0001 168.4 69.1001C170.4 71.0001 172.4 72.9001 174.4 74.9001C158.9 74.8001 144.6 74.8001 129.8 74.8001Z" fill="white"/>
</g>
<defs>
<clipPath id="clip0_87_6">
<rect width="199.5" height="160" fill="white"/>
</clipPath>
</defs>
</svg>
